<svg width="58" height="58" viewBox="0 0 58 58" fill="none" xmlns="http://www.w3.org/2000/svg">
<path d="M21.8043 11.5208C15.8543 18.2 11.771 27.7958 11.3918 28.7L0.833496 24.1791L12.646 12.3666C14.0168 10.9958 16.0002 10.3833 17.9252 10.7625L21.8043 11.5208ZM27.5793 42.5833C27.5793 42.5833 38.4877 38.0625 44.7585 31.7916C60.5085 16.0416 57.8835 3.73329 57.0377 0.962457C54.2668 0.0874568 41.9585 -2.50838 26.2085 13.2416C19.9377 19.5125 15.4168 30.4208 15.4168 30.4208L27.5793 42.5833ZM46.4793 36.1958C39.8002 42.1458 30.2043 46.2291 29.3002 46.6083L33.821 57.1666L45.6335 45.3541C47.0043 43.9833 47.6168 42 47.2377 40.075L46.4793 36.1958ZM21.2502 45.5C21.2502 47.9208 20.2585 50.1083 18.6835 51.6833C15.2418 55.125 0.833496 57.1666 0.833496 57.1666C0.833496 57.1666 2.87516 42.7583 6.31683 39.3166C7.89183 37.7416 10.0793 36.75 12.5002 36.75C17.3418 36.75 21.2502 40.6583 21.2502 45.5ZM32.9168 19.25C32.9168 16.0416 35.5418 13.4166 38.7502 13.4166C41.9585 13.4166 44.5835 16.0416 44.5835 19.25C44.5835 22.4583 41.9585 25.0833 38.7502 25.0833C35.5418 25.0833 32.9168 22.4583 32.9168 19.25Z" fill="#6911AD"/>
</svg>
