<svg width="66" height="63" viewBox="0 0 66 63" fill="none" xmlns="http://www.w3.org/2000/svg">
<path d="M55.9832 48.8709C57.2665 46.8292 58.0248 44.4667 58.0248 41.9C58.0248 34.6375 52.1623 28.775 44.8998 28.775C37.6373 28.775 31.7748 34.6375 31.7748 41.9C31.7748 49.1625 37.6373 55.025 44.8707 55.025C47.4373 55.025 49.829 54.2667 51.8415 52.9834L60.9415 62.0834L65.0832 57.9417L55.9832 48.8709ZM44.8998 49.1917C40.8748 49.1917 37.6082 45.925 37.6082 41.9C37.6082 37.875 40.8748 34.6084 44.8998 34.6084C48.9248 34.6084 52.1915 37.875 52.1915 41.9C52.1915 45.925 48.9248 49.1917 44.8998 49.1917ZM43.8498 24.4C41.6915 24.4584 39.6207 24.925 37.7248 25.7125L36.1207 23.2917L25.0373 41.3167L16.2582 31.05L5.67067 47.9959L0.916504 44.5834L15.4998 21.25L24.2498 31.4584L35.9165 12.5L43.8498 24.4ZM51.404 25.8584C49.5373 25.0417 47.5248 24.5459 45.4248 24.4292L60.3582 0.833374L65.0832 4.27504L51.404 25.8584Z" fill="#6911AD"/>
</svg>
