<svg width="60" height="60" viewBox="0 0 60 60" fill="none" xmlns="http://www.w3.org/2000/svg">
<path d="M50.621 9.37921L46.5085 13.4917C50.7085 17.7209 53.3335 23.5542 53.3335 30C53.3335 42.8917 42.8918 53.3334 30.0002 53.3334C17.1085 53.3334 6.66683 42.8917 6.66683 30C6.66683 18.1 15.5627 8.30004 27.0835 6.87087V12.7625C18.8002 14.1625 12.5002 21.3375 12.5002 30C12.5002 39.6542 20.346 47.5 30.0002 47.5C39.6543 47.5 47.5002 39.6542 47.5002 30C47.5002 25.1584 45.546 20.7834 42.3668 17.6334L38.2543 21.7459C40.3543 23.875 41.6668 26.7917 41.6668 30C41.6668 36.4459 36.446 41.6667 30.0002 41.6667C23.5543 41.6667 18.3335 36.4459 18.3335 30C18.3335 24.575 22.0668 20.0542 27.0835 18.7417V24.9834C25.3335 26.0042 24.1668 27.8417 24.1668 30C24.1668 33.2084 26.7918 35.8334 30.0002 35.8334C33.2085 35.8334 35.8335 33.2084 35.8335 30C35.8335 27.8417 34.6668 25.975 32.9168 24.9834V0.833374H30.0002C13.9002 0.833374 0.833496 13.9 0.833496 30C0.833496 46.1 13.9002 59.1667 30.0002 59.1667C46.1002 59.1667 59.1668 46.1 59.1668 30C59.1668 21.95 55.9002 14.6584 50.621 9.37921Z" fill="#6911AD"/>
</svg>
